# xmcd
#
# Track frame offsets: 
#        187
#        20425
#        40517
#        56755
#        78847
#        100735
#        119575
#        138712
#        158835
#        181177
#
# Disc length: 2664 seconds
#
# Revision: 3
# Processed by: cddbd v1.5.2PL0 Copyright (c) Steve Scherf et al.
# Submitted via: ExactAudioCopyFreeDBPlugin 1.0
#
DISCID=7a0a660a
DTITLE=徳永英明 - BIRDS
DYEAR=1987
DGENRE=JPop
TTITLE0=輝きながら…
TTITLE1=シック
TTITLE2=ため息のステイ
TTITLE3=ノースリーブのクリスマス
TTITLE4=夏の素描
TTITLE5=BIRDS
TTITLE6=君は悲しいギター
TTITLE7=さよならの水彩画
TTITLE8=Silent good-night~君のために…
TTITLE9=レター
EXTD=
EXTT0=
EXTT1=
EXTT2=
EXTT3=
EXTT4=
EXTT5=
EXTT6=
EXTT7=
EXTT8=
EXTT9=
PLAYORDER=
